Normalized EMG Linear Envelopes
nRows=227
nColumns=4

endheader
time	 med_gas_r	  soleus_r	 tib_ant_r	
3.42641	  0.004260	  0.025349	  0.003713	
3.45968	  0.004776	  0.024429	  0.003638	
3.49294	  0.005233	  0.023580	  0.003562	
3.52621	  0.005594	  0.022868	  0.003490	
3.55948	  0.005847	  0.022342	  0.003420	
3.59274	  0.006009	  0.022006	  0.003354	
3.62601	  0.006114	  0.021813	  0.003289	
3.65927	  0.006207	  0.021681	  0.003225	
3.69254	  0.006322	  0.021523	  0.003165	
3.72581	  0.006468	  0.021260	  0.003114	
3.75907	  0.006626	  0.020845	  0.003080	
3.79234	  0.006753	  0.020288	  0.003072	
3.8256	  0.006808	  0.019681	  0.003092	
3.85887	  0.006769	  0.019183	  0.003138	
3.89214	  0.006642	  0.018959	  0.003208	
3.9254	  0.006459	  0.019101	  0.003294	
3.95867	  0.006271	  0.019575	  0.003385	
3.99194	  0.006130	  0.020230	  0.003467	
4.0252	  0.006082	  0.020874	  0.003528	
4.05847	  0.006152	  0.021359	  0.003561	
4.09173	  0.006340	  0.021638	  0.003568	
4.125	  0.006619	  0.021750	  0.003555	
4.15827	  0.006951	  0.021770	  0.003532	
4.19153	  0.007288	  0.021756	  0.003510	
4.2248	  0.007571	  0.021739	  0.003496	
4.25806	  0.007740	  0.021720	  0.003492	
4.29133	  0.007746	  0.021680	  0.003499	
4.3246	  0.007577	  0.021583	  0.003514	
4.35786	  0.007277	  0.021385	  0.003535	
4.39113	  0.006925	  0.021052	  0.003559	
4.4244	  0.006596	  0.020576	  0.003582	
4.45766	  0.006328	  0.019983	  0.003602	
4.49093	  0.006119	  0.019338	  0.003616	
4.52419	  0.005954	  0.018747	  0.003624	
4.55746	  0.005827	  0.018325	  0.003625	
4.59073	  0.005753	  0.018149	  0.003619	
4.62399	  0.005749	  0.018211	  0.003600	
4.65726	  0.005821	  0.018417	  0.003565	
4.69052	  0.005956	  0.018633	  0.003516	
4.72379	  0.006128	  0.018763	  0.003458	
4.75706	  0.006307	  0.018811	  0.003406	
4.79032	  0.006474	  0.018873	  0.003378	
4.82359	  0.006627	  0.019071	  0.003389	
4.85685	  0.006780	  0.019463	  0.003451	
4.89012	  0.006941	  0.019987	  0.003569	
4.92339	  0.007107	  0.020491	  0.003738	
4.95665	  0.007262	  0.020808	  0.003939	
4.98992	  0.007384	  0.020842	  0.004143	
5.02319	  0.007454	  0.020598	  0.004309	
5.05645	  0.007459	  0.020146	  0.004381	
5.08972	  0.007387	  0.019563	  0.004287	
5.12298	  0.007238	  0.018888	  0.003932	
5.15625	  0.007022	  0.018131	  0.003202	
5.18952	  0.006760	  0.017297	  0.001980	
5.22278	  0.006473	  0.016405	  0.000163	
5.25605	  0.006171	  0.015487	 -0.002312	
5.28931	  0.005859	  0.014576	 -0.005405	
5.32258	  0.005550	  0.013725	 -0.008874	
5.35585	  0.005277	  0.013027	 -0.012143	
5.38911	  0.005097	  0.012666	 -0.014205	
5.42238	  0.005078	  0.012960	 -0.013618	
5.45565	  0.005298	  0.014399	 -0.008513	
5.48891	  0.005857	  0.017659	  0.003433	
5.52218	  0.006883	  0.023583	  0.024981	
5.55544	  0.008518	  0.033061	  0.058910	
5.58871	  0.010863	  0.046828	  0.106908	
5.62198	  0.013905	  0.065177	  0.168156	
5.65524	  0.017482	  0.087681	  0.238695	
5.68851	  0.021316	  0.113055	  0.312435	
5.72177	  0.025122	  0.139273	  0.383445	
5.75504	  0.028715	  0.164034	  0.447894	
5.78831	  0.032034	  0.185512	  0.504341	
5.82157	  0.035095	  0.203011	  0.552579	
5.85484	  0.037894	  0.217026	  0.592487	
5.8881	  0.040372	  0.228524	  0.623936	
5.92137	  0.042448	  0.237943	  0.647455	
5.95464	  0.044080	  0.244842	  0.664566	
5.9879	  0.045273	  0.248538	  0.677218	
6.02117	  0.046041	  0.249120	  0.686850	
6.05444	  0.046370	  0.247797	  0.694034	
6.0877	  0.046238	  0.246340	  0.698992	
6.12097	  0.045651	  0.246266	  0.702224	
6.15423	  0.044692	  0.248434	  0.704454	
6.1875	  0.043543	  0.253039	  0.706029	
6.22077	  0.042482	  0.259629	  0.706734	
6.25403	  0.041815	  0.267107	  0.706377	
6.2873	  0.041768	  0.273986	  0.705566	
6.32056	  0.042361	  0.278962	  0.705840	
6.35383	  0.043397	  0.281383	  0.709041	
6.3871	  0.044556	  0.281251	  0.716364	
6.42036	  0.045540	  0.278955	  0.727506	
6.45363	  0.046185	  0.275312	  0.740240	
6.4869	  0.046457	  0.271963	  0.750802	
6.52016	  0.046382	  0.271426	  0.755347	
6.55343	  0.045972	  0.276093	  0.751917	
6.58669	  0.045214	  0.286527	  0.741641	
6.61996	  0.044129	  0.300419	  0.728075	
6.65323	  0.042842	  0.313415	  0.714975	
6.68649	  0.041588	  0.321542	  0.704031	
6.71976	  0.040614	  0.323560	  0.694151	
6.75302	  0.040068	  0.321524	  0.682705	
6.78629	  0.039945	  0.319318	  0.667744	
6.81956	  0.040168	  0.320536	  0.649595	
6.85282	  0.040697	  0.327378	  0.630917	
6.88609	  0.041573	  0.340965	  0.615499	
6.91935	  0.042873	  0.362075	  0.606772	
6.95262	  0.044642	  0.391188	  0.606735	
6.98589	  0.046859	  0.427784	  0.615402	
7.01915	  0.049431	  0.469840	  0.630628	
7.05242	  0.052170	  0.514164	  0.648456	
7.08569	  0.054783	  0.557250	  0.664140	
7.11895	  0.056940	  0.595910	  0.673639	
7.15222	  0.058366	  0.627452	  0.674860	
7.18548	  0.058909	  0.649713	  0.668090	
7.21875	  0.058523	  0.661196	  0.655592	
7.25202	  0.057236	  0.661249	  0.640705	
7.28528	  0.055183	  0.650176	  0.626742	
7.31855	  0.052651	  0.629292	  0.616092	
7.35181	  0.050053	  0.600881	  0.609966	
7.38508	  0.047794	  0.567794	  0.608797	
7.41835	  0.046126	  0.532631	  0.612635	
7.45161	  0.045087	  0.496940	  0.620989	
7.48488	  0.044552	  0.461219	  0.632454	
7.51815	  0.044324	  0.425881	  0.644882	
7.55141	  0.044215	  0.392247	  0.656123	
7.58468	  0.044085	  0.362376	  0.664479	
7.61794	  0.043843	  0.337713	  0.668278	
7.65121	  0.043448	  0.317965	  0.665263	
7.68448	  0.042904	  0.301464	  0.653069	
7.71774	  0.042272	  0.286749	  0.630949	
7.75101	  0.041674	  0.273934	  0.601371	
7.78427	  0.041274	  0.264834	  0.569788	
7.81754	  0.041229	  0.262078	  0.542483	
7.85081	  0.041650	  0.267924	  0.524088	
7.88407	  0.042575	  0.283127	  0.516533	
7.91734	  0.043950	  0.306022	  0.519739	
7.9506	  0.045631	  0.332371	  0.532869	
7.98387	  0.047400	  0.356709	  0.554789	
8.01714	  0.049019	  0.374953	  0.583499	
8.0504	  0.050294	  0.386607	  0.615510	
8.08367	  0.051089	  0.394735	  0.646216	
8.11694	  0.051308	  0.403579	  0.671297	
8.1502	  0.050878	  0.415740	  0.688023	
8.18347	  0.049782	  0.431198	  0.695353	
8.21673	  0.048135	  0.448631	  0.693067	
8.25	  0.046242	  0.467406	  0.681284	
8.28327	  0.044575	  0.488331	  0.661207	
8.31653	  0.043658	  0.512816	  0.636202	
8.3498	  0.043918	  0.541632	  0.611500	
8.38306	  0.045581	  0.574460	  0.592176	
8.41633	  0.048659	  0.610206	  0.580906	
8.4496	  0.053012	  0.647350	  0.577279	
8.48286	  0.058416	  0.683909	  0.578841	
8.51613	  0.064550	  0.717248	  0.582678	
8.5494	  0.070931	  0.744333	  0.586355	
8.58266	  0.076890	  0.762720	  0.588120	
8.61593	  0.081691	  0.771934	  0.586883	
8.64919	  0.084756	  0.774262	  0.582335	
8.68246	  0.085872	  0.773982	  0.575115	
8.71573	  0.085257	  0.775065	  0.566759	
8.74899	  0.083474	  0.778738	  0.559350	
8.78226	  0.081251	  0.782821	  0.554970	
8.81552	  0.079264	  0.783545	  0.555162	
8.84879	  0.077968	  0.778617	  0.560593	
8.88206	  0.077530	  0.769267	  0.570991	
8.91532	  0.077854	  0.759890	  0.585214	
8.94859	  0.078649	  0.755637	  0.601356	
8.98185	  0.079510	  0.759536	  0.617054	
9.01512	  0.080001	  0.770880	  0.630250	
9.04839	  0.079751	  0.785787	  0.640092	
9.08165	  0.078528	  0.799525	  0.647251	
9.11492	  0.076296	  0.809003	  0.653180	
9.14819	  0.073254	  0.813714	  0.658820	
9.18145	  0.069836	  0.814690	  0.663759	
9.21472	  0.066631	  0.812699	  0.666480	
9.24798	  0.064230	  0.807398	  0.665372	
9.28125	  0.063049	  0.798020	  0.659661	
9.31452	  0.063222	  0.784700	  0.649749	
9.34778	  0.064592	  0.769186	  0.637091	
9.38105	  0.066773	  0.754508	  0.623890	
9.41431	  0.069256	  0.744028	  0.612540	
9.44758	  0.071472	  0.740389	  0.604602	
9.48085	  0.072825	  0.744370	  0.599629	
9.51411	  0.072744	  0.753698	  0.594828	
9.54738	  0.070806	  0.762408	  0.586241	
9.58065	  0.066906	  0.761761	  0.570874	
9.61391	  0.061335	  0.742992	  0.548127	
9.64718	  0.054682	  0.700690	  0.519497	
9.68044	  0.047643	  0.634916	  0.487161	
9.71371	  0.040863	  0.551004	  0.452948	
9.74698	  0.034841	  0.457559	  0.418413	
9.78024	  0.029894	  0.363993	  0.385360	
9.81351	  0.026141	  0.278568	  0.355838	
9.84677	  0.023538	  0.207216	  0.331458	
9.88004	  0.021944	  0.153001	  0.312776	
9.91331	  0.021191	  0.116158	  0.299328	
9.94657	  0.021083	  0.094667	  0.290139	
9.97984	  0.021372	  0.085210	  0.284126	
10.0131	  0.021766	  0.084154	  0.280151	
10.0464	  0.021998	  0.088302	  0.277039	
10.0796	  0.021909	  0.095284	  0.273816	
10.1129	  0.021490	  0.103601	  0.269999	
10.1462	  0.020836	  0.112416	  0.265509	
10.1794	  0.020069	  0.121190	  0.260187	
10.2127	  0.019276	  0.129345	  0.253397	
10.246	  0.018497	  0.136073	  0.244205	
10.2792	  0.017740	  0.140416	  0.232025	
10.3125	  0.016994	  0.141592	  0.217133	
10.3458	  0.016241	  0.139375	  0.200613	
10.379	  0.015460	  0.134253	  0.183778	
10.4123	  0.014646	  0.127213	  0.167561	
10.4456	  0.013821	  0.119309	  0.152296	
10.4788	  0.013024	  0.111277	  0.137927	
10.5121	  0.012295	  0.103397	  0.124366	
10.5454	  0.011653	  0.095593	  0.111736	
10.5786	  0.011101	  0.087697	  0.100407	
10.6119	  0.010633	  0.079744	  0.090859	
10.6452	  0.010250	  0.072091	  0.083424	
10.6784	  0.009947	  0.065274	  0.077987	
10.7117	  0.009721	  0.059671	  0.073904	
10.745	  0.009562	  0.055275	  0.070279	
10.7782	  0.009462	  0.051762	  0.066465	
10.8115	  0.009417	  0.048740	  0.062387	
10.8448	  0.009423	  0.045956	  0.058452	
10.878	  0.009474	  0.043312	  0.055141	
10.9113	  0.009554	  0.040794	  0.052673	
10.9446	  0.009648	  0.038417	  0.050929	
